# xmcd
# Track frame offsets:
# 150
# 30100
# 39621
# 58756
# 72820
# 108410
# 120155
# 133771
# 148958
# 167593
# 196831
#
# Disc length: 3057 seconds
# Revision: 0
# Processed by: cddbd v1.4PL0 Copyright (c) Steve Scherf et al.
# Submitted via: VisiTrax 2.9.5.181 - For more info visit www.synapsa.com
#
DISCID=930bef0b
DTITLE=Gary Moore - Blues for Greeny
DYEAR=1995
DGENRE=Misc
TTITLE0=If You Be My Baby
TTITLE1=Long Grey Mare
TTITLE2=Merry-Go-Round
TTITLE3=I Loved Another Woman
TTITLE4=Need Your Love So Bad
TTITLE5=The Same Way
TTITLE6=The Supernatural
TTITLE7=Driftin'
TTITLE8=Showbiz Blues
TTITLE9=Love That Burns
TTITLE10=Looking for Somebody
EXTD=
EXTT0=
EXTT1=
EXTT2=
EXTT3=
EXTT4=
EXTT5=
EXTT6=
EXTT7=
EXTT8=
EXTT9=
EXTT10=
PLAYORDER=
